<?xml version="1.0" encoding="UTF-8" standalone="no"?><!DOCTYPE svg PUBLIC "-//W3C//DTD SVG 1.1//EN" "http://www.w3.org/Graphics/SVG/1.1/DTD/svg11.dtd"><svg width="100%" height="100%" viewBox="0 0 26 26" version="1.1" xmlns="http://www.w3.org/2000/svg" xmlns:xlink="http://www.w3.org/1999/xlink" xml:space="preserve" xmlns:serif="http://www.serif.com/" style="fill-rule:evenodd;clip-rule:evenodd;stroke-linejoin:round;stroke-miterlimit:2;"><rect x="6.261" y="3.254" width="13.528" height="18.736" style="fill:#ebebeb;"/><g><path d="M14.311,6.505c-0.321,-0.681 -0.823,-1.301 -1.626,-1.301c-0.822,0 -1.315,0.595 -1.626,1.301c0.61,-0.223 0.975,-0.325 1.626,-0.325c0.65,-0 1.056,0.132 1.626,0.325Z" style="fill:#033afc;fill-rule:nonzero;"/><path d="M12.782,25.564c7.059,-0 12.782,-5.723 12.782,-12.782c-0,-7.059 -5.723,-12.782 -12.782,-12.782c-7.059,0 -12.782,5.723 -12.782,12.782c0,7.059 5.723,12.782 12.782,12.782Zm2.83,-18.408c1.56,0.91 2.565,2.539 2.565,4.884l0,7.774c0,0.634 -0.514,1.148 -1.148,1.148l-0.399,0l-0,-3.024c-0,-2.219 -1.726,-3.952 -3.945,-3.952c-2.219,0 -4.092,1.733 -4.092,3.952l-0,3.024l-0.287,0c-0.634,0 -1.148,-0.513 -1.148,-1.147l-0,-7.775c-0,-2.284 1.102,-3.958 2.6,-4.885c0.158,-1.436 0.975,-2.927 2.927,-2.927c1.951,0 2.737,1.527 2.927,2.928Zm-0.772,10.782l0,3.024l-4.458,0l0,-3.024c0,-1.231 1.112,-2.04 2.303,-2c1.148,0.037 2.155,0.769 2.155,2Z" style="fill:#033afc;"/></g></svg>