<svg width="170" height="35" viewBox="0 0 170 35" fill="none" xmlns="http://www.w3.org/2000/svg">
<path d="M19.0816 8.98206C18.6529 8.07365 17.9844 7.24737 16.9133 7.24737C15.8177 7.24737 15.16 8.04001 14.7449 8.98206C15.5584 8.68408 16.0459 8.54839 16.9133 8.54839C17.7806 8.54839 18.3214 8.72523 19.0816 8.98206Z" fill="#033AFC"/>
<path fill-rule="evenodd" clip-rule="evenodd" d="M17.0425 34.3937C26.4549 34.3937 34.0851 26.7634 34.0851 17.3511C34.0851 7.93879 26.4549 0.308594 17.0425 0.308594C7.6302 0.308594 0 7.93879 0 17.3511C0 26.7634 7.6302 34.3937 17.0425 34.3937ZM20.8163 9.84941C22.8956 11.0633 24.2361 13.2352 24.2361 16.362V26.7274C24.2361 27.5729 23.5507 28.2582 22.7052 28.2582H22.1731V24.2264C22.1731 21.2673 19.8724 18.9566 16.9133 18.9566C13.9542 18.9566 11.4573 21.2673 11.4573 24.2264V28.2582H11.0747C10.2292 28.2582 9.54382 27.5742 9.54382 26.7287V16.362C9.54382 13.3166 11.0136 11.084 13.0112 9.84836C13.2215 7.93358 14.3112 5.94635 16.9133 5.94635C19.5153 5.94635 20.5628 7.98157 20.8163 9.84941ZM19.7872 24.2264V28.2582H13.8432V24.2264C13.8432 22.585 15.3258 21.5065 16.9133 21.5586C18.4438 21.6088 19.7872 22.585 19.7872 24.2264Z" fill="#033AFC"/>
<path d="M158.377 25.9018V22.245L160.395 20.2605L164.938 25.9018H170L163.464 17.5938L169.464 11.4936H164.483L158.377 17.2834V5.77157H154.199V25.9018H158.377Z" fill="#033AFC"/>
<path d="M142.338 25.1787C143.552 25.8036 144.936 26.1161 146.489 26.1161C148.007 26.1161 149.328 25.8036 150.453 25.1787C151.578 24.536 152.408 23.6343 152.943 22.4738L149.703 20.7063C149.328 21.4026 148.855 21.9114 148.283 22.2328C147.73 22.5363 147.123 22.6881 146.462 22.6881C145.748 22.6881 145.105 22.5274 144.534 22.206C143.963 21.8847 143.507 21.4294 143.168 20.8402C142.847 20.251 142.686 19.5368 142.686 18.6977C142.686 17.8586 142.847 17.1444 143.168 16.5552C143.507 15.966 143.963 15.5107 144.534 15.1894C145.105 14.868 145.748 14.7073 146.462 14.7073C147.123 14.7073 147.73 14.868 148.283 15.1894C148.855 15.5107 149.328 16.0107 149.703 16.6891L152.943 14.9483C152.408 13.77 151.578 12.8683 150.453 12.2434C149.328 11.6007 148.007 11.2793 146.489 11.2793C144.936 11.2793 143.552 11.6007 142.338 12.2434C141.124 12.8683 140.169 13.7432 139.472 14.868C138.794 15.9749 138.455 17.2515 138.455 18.6977C138.455 20.126 138.794 21.4026 139.472 22.5274C140.169 23.6522 141.124 24.536 142.338 25.1787Z" fill="#033AFC"/>
<path fill-rule="evenodd" clip-rule="evenodd" d="M132.801 25.9018V24.1114C132.487 24.6403 132.058 25.0675 131.516 25.393C130.713 25.875 129.677 26.1161 128.409 26.1161C127.285 26.1161 126.32 25.9286 125.517 25.5537C124.714 25.1609 124.098 24.6342 123.669 23.9736C123.241 23.313 123.026 22.572 123.026 21.7507C123.026 20.8937 123.232 20.1439 123.642 19.5011C124.071 18.8584 124.74 18.3585 125.651 18.0014C126.561 17.6265 127.749 17.439 129.213 17.439H132.534C132.534 16.5463 132.257 15.85 131.703 15.3501C131.168 14.8501 130.338 14.6002 129.213 14.6002C128.445 14.6002 127.686 14.7252 126.936 14.9751C126.204 15.2072 125.579 15.5286 125.062 15.9392L123.562 13.0201C124.348 12.4666 125.294 12.0381 126.401 11.7346C127.508 11.4311 128.633 11.2793 129.775 11.2793C131.971 11.2793 133.676 11.7971 134.89 12.8326C136.104 13.8682 136.711 15.484 136.711 17.68V25.9018H132.801ZM129.668 19.8761H132.534V21.349C132.284 21.9918 131.882 22.4828 131.328 22.822C130.775 23.1434 130.15 23.304 129.454 23.304C128.722 23.304 128.142 23.1523 127.713 22.8488C127.302 22.5274 127.097 22.0989 127.097 21.5633C127.097 21.0812 127.276 20.6795 127.633 20.3581C128.008 20.0368 128.686 19.8761 129.668 19.8761Z" fill="#033AFC"/>
<path fill-rule="evenodd" clip-rule="evenodd" d="M112.109 25.3126C113.02 25.8483 114.082 26.1161 115.296 26.1161C116.653 26.1161 117.867 25.8125 118.938 25.2055C120.028 24.5985 120.885 23.7415 121.509 22.6345C122.152 21.5276 122.474 20.2153 122.474 18.6977C122.474 17.198 122.152 15.8946 121.509 14.7877C120.885 13.6807 120.028 12.8237 118.938 12.2167C117.867 11.5918 116.653 11.2793 115.296 11.2793C114.029 11.2793 112.94 11.5471 112.029 12.0828C111.55 12.3644 111.131 12.7226 110.77 13.1573V11.4936H106.78V30.9246H110.958V24.3764C111.298 24.7493 111.682 25.0614 112.109 25.3126ZM116.421 22.206C115.885 22.5274 115.269 22.6881 114.573 22.6881C113.877 22.6881 113.252 22.5274 112.698 22.206C112.145 21.8847 111.708 21.4294 111.386 20.8402C111.065 20.2331 110.904 19.519 110.904 18.6977C110.904 17.8586 111.065 17.1444 111.386 16.5552C111.708 15.966 112.145 15.5107 112.698 15.1894C113.252 14.868 113.877 14.7073 114.573 14.7073C115.269 14.7073 115.885 14.868 116.421 15.1894C116.975 15.5107 117.412 15.966 117.733 16.5552C118.073 17.1444 118.242 17.8586 118.242 18.6977C118.242 19.519 118.073 20.2331 117.733 20.8402C117.412 21.4294 116.975 21.8847 116.421 22.206Z" fill="#033AFC"/>
<path d="M94.4277 25.9018V22.245L96.446 20.2605L100.989 25.9018H106.051L99.5144 17.5938L105.515 11.4936H100.534L94.4277 17.2834V5.77157H90.2498V25.9018H94.4277Z" fill="#033AFC"/>
<path d="M78.3887 25.1787C79.6028 25.8036 80.9865 26.1161 82.5398 26.1161C84.0574 26.1161 85.3786 25.8036 86.5034 25.1787C87.6282 24.536 88.4584 23.6343 88.994 22.4738L85.7535 20.7063C85.3786 21.4026 84.9055 21.9114 84.3341 22.2328C83.7806 22.5363 83.1736 22.6881 82.513 22.6881C81.7988 22.6881 81.1561 22.5274 80.5848 22.206C80.0134 21.8847 79.5582 21.4294 79.2189 20.8402C78.8976 20.251 78.7369 19.5368 78.7369 18.6977C78.7369 17.8586 78.8976 17.1444 79.2189 16.5552C79.5582 15.966 80.0134 15.5107 80.5848 15.1894C81.1561 14.868 81.7988 14.7073 82.513 14.7073C83.1736 14.7073 83.7806 14.868 84.3341 15.1894C84.9055 15.5107 85.3786 16.0107 85.7535 16.6891L88.994 14.9483C88.4584 13.77 87.6282 12.8683 86.5034 12.2434C85.3786 11.6007 84.0574 11.2793 82.5398 11.2793C80.9865 11.2793 79.6028 11.6007 78.3887 12.2434C77.1746 12.8683 76.2194 13.7432 75.5231 14.868C74.8447 15.9749 74.5055 17.2515 74.5055 18.6977C74.5055 20.126 74.8447 21.4026 75.5231 22.5274C76.2194 23.6522 77.1746 24.536 78.3887 25.1787Z" fill="#033AFC"/>
<path fill-rule="evenodd" clip-rule="evenodd" d="M68.8521 25.9018V24.1114C68.5376 24.6403 68.1091 25.0675 67.5666 25.393C66.7632 25.875 65.7277 26.1161 64.46 26.1161C63.3352 26.1161 62.3711 25.9286 61.5677 25.5537C60.7642 25.1609 60.1483 24.6342 59.7198 23.9736C59.2913 23.313 59.077 22.572 59.077 21.7507C59.077 20.8937 59.2824 20.1439 59.693 19.5011C60.1215 18.8584 60.791 18.3585 61.7016 18.0014C62.6121 17.6265 63.7994 17.439 65.2635 17.439H68.5843C68.5843 16.5463 68.3076 15.85 67.7541 15.3501C67.2185 14.8501 66.3883 14.6002 65.2635 14.6002C64.4957 14.6002 63.7369 14.7252 62.9871 14.9751C62.2551 15.2072 61.6302 15.5286 61.1124 15.9392L59.6127 13.0201C60.3982 12.4666 61.3445 12.0381 62.4515 11.7346C63.5584 11.4311 64.6832 11.2793 65.8259 11.2793C68.0219 11.2793 69.727 11.7971 70.9411 12.8326C72.1551 13.8682 72.7622 15.484 72.7622 17.68V25.9018H68.8521ZM65.7187 19.8761H68.5843V21.349C68.3344 21.9918 67.9326 22.4828 67.3792 22.822C66.8257 23.1434 66.2008 23.304 65.5045 23.304C64.7725 23.304 64.1922 23.1523 63.7637 22.8488C63.3531 22.5274 63.1478 22.0989 63.1478 21.5633C63.1478 21.0812 63.3263 20.6795 63.6834 20.3581C64.0583 20.0368 64.7368 19.8761 65.7187 19.8761Z" fill="#033AFC"/>
<path fill-rule="evenodd" clip-rule="evenodd" d="M40.9021 7.15504V25.9018H50.5968C53.0607 25.9018 54.9264 25.4555 56.1941 24.5628C57.4617 23.6522 58.0955 22.3935 58.0955 20.7866C58.0955 19.6975 57.8367 18.778 57.3189 18.0282C56.819 17.2783 56.1137 16.7159 55.2032 16.341C55.0231 16.2633 54.8501 16.1988 54.6845 16.1459C55.4147 15.7627 55.9982 15.2474 56.4351 14.6002C56.9172 13.8682 57.1582 13.0112 57.1582 12.0292C57.1582 10.5652 56.5601 9.38679 55.3639 8.49409C54.1855 7.60139 52.4179 7.15504 50.0612 7.15504H40.9021ZM50.2755 22.6345H45.2138V18.0014H50.2755C51.4003 18.0014 52.2483 18.1978 52.8197 18.5906C53.4088 18.9655 53.7034 19.5458 53.7034 20.3313C53.7034 21.1348 53.4088 21.724 52.8197 22.0989C52.2483 22.456 51.4003 22.6345 50.2755 22.6345ZM45.2138 14.8412V10.4223H49.5256C50.579 10.4223 51.3824 10.6098 51.9359 10.9847C52.5072 11.3418 52.7929 11.8864 52.7929 12.6184C52.7929 13.3683 52.5072 13.9307 51.9359 14.3056C51.3824 14.6627 50.579 14.8412 49.5256 14.8412H45.2138Z" fill="#033AFC"/>
</svg>
