<?xml version="1.0" encoding="UTF-8" standalone="no"?>
<!DOCTYPE svg PUBLIC "-//W3C//DTD SVG 1.1//EN" "http://www.w3.org/Graphics/SVG/1.1/DTD/svg11.dtd">
<svg width="100%" height="100%" viewBox="0 0 35 35" version="1.1" xmlns="http://www.w3.org/2000/svg" xmlns:xlink="http://www.w3.org/1999/xlink" xml:space="preserve" xmlns:serif="http://www.serif.com/" style="fill-rule:evenodd;clip-rule:evenodd;stroke-linejoin:round;stroke-miterlimit:2;">
    <g transform="matrix(1,0,0,1,0,-0.308594)">
        <path d="M19.082,8.982C18.653,8.074 17.984,7.247 16.913,7.247C15.818,7.247 15.16,8.04 14.745,8.982C15.558,8.684 16.046,8.548 16.913,8.548C17.781,8.548 18.321,8.725 19.082,8.982Z" style="fill:rgb(3,58,252);fill-rule:nonzero;"/>
        <path d="M17.043,34.394C26.455,34.394 34.085,26.763 34.085,17.351C34.085,7.939 26.455,0.309 17.043,0.309C7.63,0.309 0,7.939 0,17.351C0,26.763 7.63,34.394 17.043,34.394ZM20.816,9.849C22.896,11.063 24.236,13.235 24.236,16.362L24.236,26.727C24.236,27.573 23.551,28.258 22.705,28.258L22.173,28.258L22.173,24.226C22.173,21.267 19.872,18.957 16.913,18.957C13.954,18.957 11.457,21.267 11.457,24.226L11.457,28.258L11.075,28.258C10.229,28.258 9.544,27.574 9.544,26.729L9.544,16.362C9.544,13.317 11.014,11.084 13.011,9.848C13.222,7.934 14.311,5.946 16.913,5.946C19.515,5.946 20.563,7.982 20.816,9.849ZM19.787,24.226L19.787,28.258L13.843,28.258L13.843,24.226C13.843,22.585 15.326,21.507 16.913,21.559C18.444,21.609 19.787,22.585 19.787,24.226Z" style="fill:rgb(3,58,252);"/>
    </g>
</svg>
